<svg xmlns="http://www.w3.org/2000/svg" width="41" height="40" viewBox="0 0 41 40" fill="none">
  <path d="M21.5298 18.1399L21.3598 18.0999V11.7099L21.6298 11.7699C22.5998 11.9899 23.5198 12.4099 24.4398 13.0299C25.0398 13.4399 25.8598 13.2999 26.2998 12.7199C26.5198 12.4199 26.6198 12.0499 26.5498 11.6799C26.4898 11.3199 26.2898 10.9999 25.9898 10.7999C24.5898 9.85992 23.1798 9.31992 21.5498 9.09992L21.3598 9.06992V6.72992C21.3598 6.14992 20.8798 5.66992 20.2998 5.66992C19.7198 5.66992 19.2398 6.14992 19.2398 6.72992V8.99992L19.0398 9.01992C15.5498 9.31992 13.1098 11.6199 13.1098 14.6199V14.6799C13.1098 17.7099 14.8398 19.3699 19.0698 20.4199L19.2398 20.4599V27.0399L18.9798 26.9899C17.5498 26.7399 16.2698 26.1399 14.9498 25.0999C14.6998 24.8999 14.4098 24.8099 14.1098 24.8099C13.7298 24.8099 13.3498 24.9699 13.0798 25.2899C12.8398 25.5699 12.7298 25.9399 12.7698 26.3099C12.8098 26.6799 12.9898 26.9999 13.2798 27.2299C15.0298 28.5799 16.9198 29.3599 19.0398 29.6199L19.2298 29.6399V32.9599C19.2298 33.5399 19.7098 34.0199 20.2898 34.0199C20.8698 34.0199 21.3498 33.5399 21.3498 32.9599V29.6799L21.5498 29.6599C25.1598 29.3199 27.5798 26.9999 27.5798 23.8799V23.8199C27.5798 20.8599 25.7698 19.1599 21.5198 18.1299L21.5298 18.1399ZM19.2398 17.5799L18.9498 17.4899C16.3998 16.6899 15.8998 15.7899 15.8998 14.4999V14.4399C15.8998 12.9699 17.1098 11.8699 18.9898 11.6199L19.2398 11.5899V17.5799ZM24.7698 24.1099C24.7698 25.6699 23.5598 26.8099 21.6098 27.0799L21.3598 27.1099V20.9599L21.6398 21.0399C24.2498 21.8199 24.7698 22.7299 24.7698 24.0399V24.0999V24.1099Z" fill="white"/>
  <path d="M20.4305 0C9.43047 0 0.480469 8.95 0.480469 19.95C0.480469 30.95 9.43047 39.9 20.4305 39.9C31.4305 39.9 40.3805 30.95 40.3805 19.95C40.3805 8.95 31.4405 0 20.4305 0ZM20.4305 36.91C11.0805 36.91 3.48047 29.3 3.48047 19.96C3.48047 10.62 11.0905 3 20.4305 3C29.7705 3 37.3805 10.61 37.3805 19.95C37.3805 29.29 29.7705 36.9 20.4305 36.9V36.91Z" fill="white"/>
</svg>