<svg xmlns="http://www.w3.org/2000/svg" width="180" height="96" viewBox="0 0 180 96" fill="none">
  <g clip-path="url(#clip0_2313_1409)">
    <path d="M113.459 90.01C110.819 90.01 109.409 90.95 108.269 91.7C107.269 92.36 106.539 92.84 104.899 92.84C103.259 92.84 102.529 92.36 101.529 91.7C100.799 91.22 99.9486 90.66 98.7386 90.32C102.259 82.66 100.019 73.21 92.6786 68.08C87.5986 64.53 80.9886 64.02 75.2586 66.36L75.1186 66.42L75.0686 66.51C71.9986 72.14 71.8486 79.03 75.0786 84.56C76.3786 86.79 78.0886 88.63 80.0386 90.05C79.7786 90.03 79.5186 90.01 79.2386 90.01C76.5986 90.01 75.1886 90.95 74.0486 91.7C73.0486 92.36 72.3186 92.84 70.6786 92.84C69.0386 92.84 68.3086 92.36 67.3086 91.7C66.1686 90.95 64.7586 90.01 62.1186 90.01C59.4786 90.01 58.0686 90.95 56.9286 91.7C56.2486 92.15 55.6886 92.52 54.8886 92.7C54.0886 92.88 53.5586 93.53 53.5586 94.31C53.5586 95.37 54.5386 96.15 55.5686 95.92C56.9886 95.6 57.9386 94.98 58.7486 94.44C59.7486 93.78 60.4786 93.3 62.1186 93.3C63.7586 93.3 64.4886 93.78 65.4886 94.44C66.6286 95.19 68.0386 96.13 70.6786 96.13C73.3186 96.13 74.7286 95.19 75.8686 94.44C76.8686 93.78 77.5986 93.3 79.2386 93.3C80.8786 93.3 81.6086 93.78 82.6086 94.44C83.7486 95.19 85.1586 96.13 87.7986 96.13C90.4386 96.13 91.8486 95.19 92.9886 94.44C93.9886 93.78 94.7086 93.3 96.3586 93.3C98.0086 93.3 98.7286 93.78 99.7286 94.44C100.869 95.19 102.279 96.13 104.919 96.13C107.559 96.13 108.969 95.19 110.109 94.44C111.109 93.78 111.839 93.3 113.479 93.3C115.119 93.3 115.849 93.78 116.849 94.44C117.659 94.97 118.599 95.6 120.019 95.92C121.049 96.15 122.029 95.36 122.029 94.31C122.029 93.52 121.469 92.87 120.699 92.7C119.929 92.53 119.339 92.15 118.659 91.7C117.519 90.95 116.109 90.01 113.469 90.01H113.459ZM93.4286 73.13C97.1786 77.38 98.0986 83.42 95.9086 88.57C91.4086 86.9 87.3686 84.14 84.1686 80.51C82.1386 78.21 81.0286 75.47 79.8486 72.56C79.3386 71.31 78.8186 70.04 78.2186 68.79C83.6586 67.15 89.6186 68.81 93.4286 73.13ZM76.2686 72.52C76.4386 72.94 76.6186 73.37 76.7886 73.8C78.0186 76.83 79.2886 79.97 81.6886 82.69C84.4186 85.79 87.7086 88.31 91.3486 90.16C86.9686 90.38 82.6186 88.63 79.6086 85.22C76.5086 81.71 75.3486 76.97 76.2686 72.52Z" fill="white"/>
    <path d="M58.1595 49.04C58.4995 48.43 58.8095 47.79 59.0895 47.14C60.1995 44.58 61.3095 42.03 62.4295 39.47C63.7295 36.51 65.0195 33.55 66.2995 30.58C66.6695 29.72 66.8695 28.75 66.9995 28.01C67.5195 25.03 66.5595 22.65 64.2895 21.31C61.8995 19.9 58.7895 20.1 56.5495 21.81C54.3695 23.47 53.1395 25.85 52.2195 27.97C51.9495 28.6 51.6895 29.23 51.4395 29.87C50.9495 31.11 50.4295 32.4 49.7695 33.61C49.1895 34.68 49.4395 35.61 50.4495 36.17C51.4395 36.72 52.3595 36.42 52.9895 35.37C53.6795 34.21 54.1895 32.93 54.6695 31.69C54.8795 31.15 55.0895 30.62 55.3195 30.09C56.0395 28.42 56.7695 26.69 58.1095 25.3C59.3595 24 60.7795 23.7 62.2195 24.43C63.8895 25.28 63.5095 26.97 63.2695 27.98L63.1895 28.31C63.0495 28.95 62.8995 29.61 62.5995 30.2C60.3095 34.6 58.3995 39.25 56.5395 43.76L55.9995 45.07C53.8395 50.3 45.6495 55.01 40.6595 59.13C38.8495 60.63 36.9395 61.98 35.0695 63.25C17.0995 76.62 -5.23047 92.39 -5.23047 92.39L-2.14047 94.73L37.3395 66.11C39.7695 64.39 42.2595 62.61 44.4895 60.55C48.6095 56.73 55.8395 53.28 58.1595 49.03V49.04Z" fill="white"/>
    <path d="M27.15 49.94C27.26 49.85 27.4 49.78 27.53 49.71C29.96 48.39 35.07 44.96 36.47 41.99C37.14 40.56 37.87 39.11 38.56 37.72C39.23 36.36 39.93 34.96 40.59 33.58C43.03 28.43 46.32 24.12 50.36 20.77C57.15 15.16 63.5 10.55 69.78 6.69C72 5.32 74.04 4.41 76.02 3.9C77.34 3.56 79.34 3.05 80.38 4.86C81.37 6.58 80.06 7.9 79.01 8.96C76.9 11.1 74.39 12.76 71.95 14.38L71.69 14.55C69.85 15.77 68.32 16.78 66.79 17.91C65.9 18.56 65.76 19.45 66.4 20.4C66.71 20.86 67.12 21.16 67.56 21.24C67.95 21.31 68.35 21.21 68.71 20.95C70.03 20.01 71.42 19.11 72.75 18.24C76.17 16.02 79.72 13.71 82.5 10.56C84.45 8.35 84.86 5.8 83.66 3.19C82.64 0.930001 80.67 -0.0799987 77.48 1.26287e-06C76.11 0.0400013 74.7 0.350001 73.02 0.990001C71.03 1.75 69.29 2.6 67.72 3.59C59.99 8.45 53.17 13.46 46.9 18.9C42.49 22.73 39.09 27.7 36.79 33.7C36.79 33.71 36.79 33.72 36.78 33.73C36.39 34.44 36 35.14 35.61 35.84C34.71 37.45 33.78 39.13 32.93 40.8C32.11 42.43 26.9 45.86 25.21 46.81C25.06 46.89 24.92 46.98 24.78 47.07L-11 68.71L-9.58 72.23L23.45 52.18L27.15 49.93V49.94Z" fill="white"/>
    <path d="M122.208 49.04C121.868 48.43 121.558 47.79 121.278 47.14C120.168 44.58 119.058 42.03 117.938 39.47C116.638 36.51 115.348 33.55 114.068 30.58C113.698 29.72 113.498 28.75 113.368 28.01C112.848 25.03 113.808 22.65 116.078 21.31C118.468 19.9 121.578 20.1 123.818 21.81C125.998 23.47 127.228 25.85 128.148 27.97C128.418 28.6 128.678 29.23 128.928 29.87C129.418 31.11 129.938 32.4 130.598 33.61C131.178 34.68 130.928 35.61 129.918 36.17C128.928 36.72 128.008 36.42 127.378 35.37C126.688 34.21 126.178 32.93 125.698 31.69C125.488 31.15 125.278 30.62 125.048 30.09C124.328 28.42 123.598 26.69 122.258 25.3C121.008 24 119.588 23.7 118.148 24.43C116.478 25.28 116.858 26.97 117.098 27.98L117.178 28.31C117.318 28.95 117.468 29.61 117.768 30.2C120.058 34.6 121.968 39.25 123.828 43.76L124.368 45.07C126.528 50.3 134.718 55.01 139.708 59.13C141.518 60.63 143.428 61.98 145.298 63.25C163.268 76.62 185.598 92.39 185.598 92.39L182.508 94.73L143.028 66.11C140.598 64.39 138.108 62.61 135.878 60.55C131.758 56.73 124.528 53.28 122.208 49.03V49.04Z" fill="white"/>
    <path d="M153.212 49.94C153.102 49.85 152.962 49.78 152.832 49.71C150.402 48.39 145.292 44.96 143.892 41.99C143.222 40.56 142.492 39.11 141.802 37.72C141.132 36.36 140.432 34.96 139.772 33.58C137.332 28.43 134.042 24.12 130.002 20.77C123.212 15.16 116.862 10.55 110.582 6.69C108.362 5.32 106.322 4.41 104.342 3.9C103.022 3.56 101.022 3.05 99.9818 4.86C98.9918 6.58 100.302 7.9 101.352 8.96C103.462 11.1 105.972 12.76 108.412 14.38L108.672 14.55C110.512 15.77 112.042 16.78 113.572 17.91C114.462 18.56 114.602 19.45 113.962 20.4C113.652 20.86 113.242 21.16 112.802 21.24C112.412 21.31 112.012 21.21 111.652 20.95C110.332 20.01 108.942 19.11 107.612 18.24C104.192 16.02 100.642 13.71 97.8618 10.56C95.9118 8.35 95.5018 5.8 96.7018 3.19C97.7318 0.930001 99.6918 -0.0799987 102.892 1.26287e-06C104.262 0.0400013 105.672 0.350001 107.352 0.990001C109.342 1.75 111.082 2.6 112.652 3.59C120.382 8.45 127.202 13.46 133.472 18.9C137.882 22.73 141.282 27.7 143.582 33.7C143.582 33.71 143.582 33.72 143.592 33.73C143.982 34.44 144.372 35.14 144.762 35.84C145.662 37.45 146.592 39.13 147.442 40.8C148.262 42.43 153.472 45.86 155.162 46.81C155.312 46.89 155.452 46.98 155.592 47.07L191.362 68.71L189.942 72.23L156.912 52.18L153.212 49.93V49.94Z" fill="white"/>
    <path d="M97.9396 55.7236C97.8086 55.4336 97.5718 55.3433 97.2243 55.4527C96.7911 55.5905 96.3327 55.6285 95.8592 55.5667C94.9878 55.4574 94.1919 55.3481 93.4162 55.2435C91.9404 55.0391 90.6106 54.887 89.2707 55.1057C86.6514 55.5335 85.9512 57.4823 85.8303 59.0413C85.8102 59.3313 85.9613 59.5119 86.2585 59.5547C86.5758 59.6022 86.7823 59.4691 86.868 59.1649C86.8881 59.0841 86.8982 58.9985 86.9083 58.9082L86.9183 58.8274C87.1249 57.1638 88.0064 56.2797 89.6988 56.0516C90.122 55.9945 90.5551 55.9993 90.9783 56.0088H91.0135C91.9605 56.023 92.9075 56.1704 93.8242 56.313C94.4841 56.4176 95.1641 56.5221 95.8542 56.5792C95.8794 56.5792 95.8995 56.5934 95.9146 56.6172C95.9247 56.6362 95.9247 56.6647 95.9146 56.6837C95.6326 57.1781 95.3807 57.6867 95.1389 58.181C94.8317 58.7989 94.5143 59.4406 94.1416 60.0442C93.8595 60.4958 93.5119 61.0091 93.0183 61.4132C91.1697 62.9342 89.6082 62.8391 87.7847 61.1042C87.7696 61.0899 87.7595 61.0709 87.7646 61.0472C87.7646 61.0282 87.7797 61.0091 87.7948 60.9949C87.8905 60.9283 87.9913 60.8618 88.087 60.7952C88.2985 60.6479 88.5151 60.4958 88.7418 60.358C89.6787 59.7686 90.6811 59.3265 91.6281 58.9272C91.8295 58.8417 91.9655 58.7229 92.0209 58.5803C92.0663 58.4662 92.0562 58.3473 91.9907 58.219C91.8396 57.9196 91.5777 57.853 91.1797 58.0146C90.8977 58.1287 90.6055 58.2523 90.2932 58.3949C88.777 59.0841 87.0493 59.9967 85.7497 61.5463C85.6339 61.6841 85.5231 61.8267 85.3971 61.9788L85.2057 62.2212C85.2057 62.2212 85.1604 62.2545 85.1302 62.245C85.0999 62.2402 85.0798 62.2165 85.0748 62.1927C84.8934 61.4322 84.702 60.6431 84.3142 59.9492C84.0774 59.5309 84.0875 59.1649 84.1731 58.7466C84.6617 56.2987 83.9565 54.9441 81.7352 54.0742C81.584 54.0124 81.4329 53.9459 81.2818 53.8841C80.8738 53.7035 80.491 53.5276 80.1787 53.2519C80.0024 53.0998 79.8513 53 79.68 53C79.6145 53 79.544 53.0143 79.4735 53.0475C79.2216 53.1521 79.0957 53.3612 79.0756 53.7082L79.0655 53.8651C79.0302 54.3594 79 54.8728 79 55.3718C79.0151 57.5773 80.3147 59.2647 82.39 59.7686C83.0851 59.9397 83.347 60.2867 83.5536 60.7952C84.1429 62.2878 84.2588 63.8468 84.294 65.3108C84.3091 65.9335 84.6113 65.9952 84.8481 66C84.9992 66 85.1151 65.9572 85.1957 65.8812C85.3065 65.7718 85.3619 65.577 85.3568 65.2965C85.3568 65.1777 85.3417 65.0541 85.3266 64.9305C85.2964 64.6406 85.2611 64.3411 85.372 64.094C85.7699 63.1956 86.2686 62.4684 86.8881 61.8695C86.9183 61.841 86.9637 61.841 86.9939 61.8695C87.4926 62.3115 88.0567 62.7013 88.7166 63.0625C89.5981 63.5426 90.5199 63.6424 91.5323 63.3667C92.4692 63.1148 93.2601 62.649 93.9552 61.9455C94.7762 61.1137 95.3454 60.1108 95.7887 59.2362C95.8844 59.0508 95.9801 58.8607 96.0708 58.6753C96.2773 58.2618 96.4939 57.834 96.7256 57.4205C96.9674 56.9927 97.1991 56.6172 97.6373 56.3985C97.9748 56.2274 98.0756 56.0183 97.9446 55.7378L97.9396 55.7236Z" fill="white"/>
  </g>
  <defs>
    <clipPath id="clip0_2313_1409">
      <rect width="202.36" height="96.14" fill="white" transform="translate(-11)"/>
    </clipPath>
  </defs>
</svg>