<svg xmlns="http://www.w3.org/2000/svg" width="103" height="62" viewBox="0 0 103 62" fill="none">
  <path d="M101.68 21.7203L73.6995 0.590292C73.3795 0.350292 72.9995 0.210291 72.6095 0.190291C71.4095 0.120291 45.9195 0.190291 43.0195 0.190291C41.9195 0.190291 41.0195 1.09029 41.0195 2.19029C41.0195 3.29029 41.9195 4.19029 43.0195 4.19029C53.3395 4.17029 68.5695 4.15029 71.8095 4.18029L98.4795 24.3203V59.5203C98.4795 60.6203 99.3795 61.5203 100.48 61.5203C101.58 61.5203 102.48 60.6203 102.48 59.5203V23.3203C102.48 22.6903 102.19 22.1003 101.69 21.7203H101.68Z" fill="white"/>
  <path d="M92.6489 23.4702H66.6289C65.5289 23.4702 64.6289 24.3702 64.6289 25.4702C64.6289 26.5702 65.5289 27.4702 66.6289 27.4702H92.6489C93.7489 27.4702 94.6489 26.5702 94.6489 25.4702C94.6489 24.3702 93.7489 23.4702 92.6489 23.4702Z" fill="white"/>
  <path d="M92 57.6603H60.33C60.33 57.6603 60.34 57.5903 60.34 57.5503L60.51 24.0003C60.51 22.7103 59.89 21.4703 58.82 20.6903L32.87 1.55031C31.33 0.410313 29.17 0.410313 27.63 1.55031L1.69 20.6903C0.62 21.4703 0 22.7103 0 23.9903L0.1 54.5303C0.1 54.7003 0.12 54.8603 0.16 55.0303V57.5503C0.18 59.8203 2.12 61.6703 4.48 61.6703H19.48C21.86 61.6703 23.79 59.8103 23.79 57.5303V38.8903H36.75V57.5303C36.75 59.8203 38.68 61.6703 41.06 61.6703H56.06C56.16 61.6703 56.25 61.6503 56.34 61.6403C56.39 61.6403 56.44 61.6503 56.49 61.6503H92.02C93.12 61.6503 94.02 60.7503 94.02 59.6503C94.02 58.5503 93.12 57.6503 92.02 57.6503L92 57.6603ZM36.91 34.4103H23.61C21.23 34.4103 19.3 36.2703 19.3 38.5503V57.1903H4.65L4.63 53.3903C4.63 53.2303 4.61 53.0703 4.58 52.9203L4.48 24.1903L30.23 5.15031L56.05 24.1903L55.88 57.2003H41.22V38.5603C41.22 36.2703 39.29 34.4203 36.91 34.4203V34.4103Z" fill="white"/>
</svg>