<svg xmlns="http://www.w3.org/2000/svg" width="123" height="116" viewBox="0 0 123 116" fill="none">
  <g clip-path="url(#clip0_2313_212)">
    <path d="M40.69 77.25C46.81 75.14 55.1 70.6 60.69 71.48L62.09 71.7C66.9 72.47 71.88 73.26 76.82 73.6C77.48 73.64 78.12 73.86 78.74 74.08L79.06 74.19C80.05 74.52 81.69 75.07 81.55 76.94C81.42 78.55 80.43 79.6 78.67 79.99C76.79 80.41 74.93 80.13 73.12 79.87C72.55 79.79 71.99 79.69 71.42 79.59C70.11 79.36 68.76 79.13 67.41 79.11C66.19 79.1 65.46 79.73 65.41 80.86C65.36 82.02 66.03 82.72 67.24 82.78C68.62 82.85 69.98 83.08 71.3 83.31C71.98 83.42 72.65 83.54 73.33 83.63C75.61 83.95 78.29 84.13 80.84 83.14C83.47 82.12 85.26 79.57 85.31 76.79C85.35 74.15 83.82 72.09 81.01 70.98C80.31 70.7 79.38 70.37 78.45 70.23C75.25 69.77 72.04 69.33 68.84 68.9C66.08 68.52 63.32 68.14 60.55 67.76C59.84 67.66 59.14 67.59 58.44 67.56C53.6 67.33 46.89 71.7 41.49 73.23C38.57 74.05 35.76 75.26 33.02 76.43L-12 95.22L-11.61 99.07C-11.61 99.07 13.49 88.24 34.26 79.86C36.32 78.93 38.47 78.01 40.69 77.24V77.25Z" fill="white"/>
    <path d="M103.948 66.84C99.8081 67.58 95.9981 69.4 92.3081 71.16C90.8681 71.85 89.3781 72.56 87.8881 73.2C87.4781 73.38 87.1781 73.67 87.0381 74.03C86.8781 74.45 86.9181 74.95 87.1481 75.46C87.6281 76.51 88.4581 76.85 89.4781 76.43C91.2381 75.7 92.8981 74.93 94.8981 74L95.1881 73.87C97.8381 72.63 100.568 71.35 103.488 70.67C104.938 70.33 106.748 69.91 107.698 71.64C108.708 73.47 107.218 74.92 106.248 75.87C104.778 77.3 102.938 78.57 100.618 79.74C94.0481 83.09 86.7981 86.1 78.4781 88.97C73.5181 90.68 68.1281 91.24 62.4581 90.64C60.9281 90.48 59.3781 90.34 57.8681 90.21C56.3181 90.08 54.7181 89.94 53.1381 89.77C49.8781 89.42 44.2881 91.99 41.8881 93.37C41.7581 93.45 41.6281 93.52 41.4981 93.57L37.6481 95.55L3.32812 113.29L5.59813 116.34L42.7081 97.09C42.8481 97.02 42.9981 96.94 43.1481 96.86C44.8381 95.91 50.4781 93.25 52.2981 93.4C54.1681 93.55 56.0881 93.63 57.9281 93.7C58.7281 93.73 59.5381 93.76 60.3381 93.8C60.3481 93.8 60.3581 93.8 60.3781 93.8C66.6881 94.96 72.7081 94.65 78.2781 92.88C86.1881 90.36 94.0081 87.16 102.198 83.09C103.858 82.27 105.488 81.22 107.178 79.92C108.598 78.82 109.608 77.77 110.348 76.63C112.088 73.95 112.238 71.75 110.848 69.68C109.248 67.3 106.858 66.32 103.958 66.83L103.948 66.84Z" fill="white"/>
    <path d="M84.1602 14.89V8.89002C84.1602 8.06002 83.4902 7.39001 82.6602 7.39001C81.8302 7.39001 81.1602 8.06002 81.1602 8.89002V14.89C81.1602 15.72 81.8302 16.39 82.6602 16.39C83.4902 16.39 84.1602 15.72 84.1602 14.89Z" fill="white"/>
    <path d="M58.0117 38.05H52.0117C51.1817 38.05 50.5117 38.72 50.5117 39.55C50.5117 40.38 51.1817 41.05 52.0117 41.05H58.0117C58.8417 41.05 59.5117 40.38 59.5117 39.55C59.5117 38.72 58.8417 38.05 58.0117 38.05Z" fill="white"/>
    <path d="M107.309 41.05H113.309C114.139 41.05 114.809 40.38 114.809 39.55C114.809 38.72 114.139 38.05 113.309 38.05H107.309C106.479 38.05 105.809 38.72 105.809 39.55C105.809 40.38 106.479 41.05 107.309 41.05Z" fill="white"/>
    <path d="M110.63 11.57C95.2097 -3.86 70.0997 -3.86 54.6797 11.57C40.2697 25.98 39.0997 48.75 51.9697 64.52C52.6697 65.38 53.9297 65.5 54.7797 64.81C55.6397 64.11 55.7597 62.85 55.0697 62C43.5097 47.82 44.5597 27.36 57.5097 14.41C71.3797 0.539998 93.9397 0.539998 107.81 14.41C120.83 27.44 121.69 48.6 109.75 62.6C109.03 63.44 109.13 64.7 109.97 65.42C110.35 65.74 110.81 65.9 111.27 65.9C111.84 65.9 112.4 65.66 112.79 65.2C126.07 49.62 125.12 26.07 110.63 11.58V11.57Z" fill="white"/>
    <path d="M65.2291 55.47C64.7891 55.47 64.3991 55.66 64.1191 55.96L59.9191 60.15C59.3291 60.73 59.3291 61.68 59.9191 62.27C60.2091 62.56 60.5991 62.71 60.9791 62.71C61.3591 62.71 61.7491 62.56 62.0391 62.27L66.2891 58.03L66.7291 57.58V56.96C66.7291 56.13 66.0591 55.46 65.2291 55.46V55.47Z" fill="white"/>
    <path d="M103.268 16.81L99.0284 21.05C98.4384 21.64 98.4384 22.59 99.0284 23.17C99.3184 23.46 99.7084 23.61 100.088 23.61C100.468 23.61 100.858 23.46 101.148 23.17L105.388 18.93C105.978 18.34 105.978 17.39 105.388 16.81C104.798 16.23 103.848 16.22 103.268 16.81Z" fill="white"/>
    <path d="M66.2892 21.06L62.0392 16.81C61.4492 16.22 60.4992 16.22 59.9192 16.81C59.3392 17.4 59.3292 18.35 59.9192 18.93L64.1692 23.18C64.4592 23.47 64.8492 23.62 65.2292 23.62C65.6092 23.62 65.9992 23.47 66.2892 23.18C66.8792 22.59 66.8792 21.64 66.2892 21.06Z" fill="white"/>
    <path d="M99.0286 58.04L103.269 62.28C103.559 62.57 103.949 62.72 104.329 62.72C104.709 62.72 105.099 62.57 105.389 62.28C105.979 61.69 105.979 60.74 105.389 60.16L101.149 55.92C100.559 55.33 99.6086 55.33 99.0286 55.92C98.4486 56.51 98.4386 57.46 99.0286 58.04Z" fill="white"/>
    <path d="M82.7406 41.42C82.4506 41.42 82.1606 41.36 81.8806 41.23C80.8806 40.76 80.4606 39.56 80.9306 38.56L90.4406 18.53C90.9106 17.53 92.1106 17.11 93.1106 17.58C94.1106 18.05 94.5306 19.25 94.0606 20.25L84.5506 40.28C84.2106 41 83.4906 41.42 82.7406 41.42Z" fill="white"/>
    <path d="M90.8683 51.16C90.3383 51.16 89.8083 50.95 89.4183 50.54L80.8983 41.57C80.1383 40.77 80.1683 39.5 80.9683 38.74C81.7683 37.98 83.0383 38.01 83.7983 38.81L92.3183 47.78C93.0783 48.58 93.0483 49.85 92.2483 50.61C91.8583 50.98 91.3683 51.16 90.8683 51.16Z" fill="white"/>
  </g>
  <defs>
    <clipPath id="clip0_2313_212">
      <rect width="134.16" height="116.34" fill="white" transform="translate(-12)"/>
    </clipPath>
  </defs>
</svg>