<svg xmlns="http://www.w3.org/2000/svg" width="180" height="102" viewBox="0 0 180 102" fill="none">
  <g clip-path="url(#clip0_2313_1565)">
    <path d="M90.4787 34.7959C90.384 34.7432 90.2788 34.6905 90.1946 34.6378C90.2367 34.5323 90.2788 34.4058 90.3209 34.3004C90.6997 33.2989 90.868 32.2762 90.8154 31.2641C90.8154 31.1903 90.8154 31.106 90.8154 31.0322C90.8154 30.9584 90.8154 30.8846 90.8154 30.8003C90.6576 28.9026 89.8264 27.6375 89.3213 27.0365C89.2792 26.91 89.2161 26.7941 89.1214 26.6886C86.8592 23.8843 83.7341 23.0514 80.3145 24.3587C80.2829 24.2744 80.2408 24.19 80.2303 24.1373C78.9993 21.0378 76.6423 19.3299 73.4226 19.1928C70.3712 19.0663 67.9407 20.4896 66.3834 23.3572C66.2045 23.6945 66.0151 24.0424 65.8889 24.2111C65.6784 24.19 65.2891 24.0951 64.8893 24.0003C61.9221 23.315 59.3232 24.1584 57.3556 26.4461C55.43 28.6917 54.9565 31.4117 55.9982 34.332L56.0298 34.4164C56.0614 34.5007 56.0929 34.5956 56.1245 34.6905C56.0298 34.7432 55.914 34.8065 55.8194 34.8592C54.6304 35.5128 53.6413 36.4406 52.8942 37.537C52.4523 37.4632 51.9999 37.4105 51.5369 37.3894C47.9489 37.2418 45.1185 38.9075 43.2772 42.2601C43.0141 42.7451 42.73 43.2511 42.5827 43.4198C42.3617 43.4198 41.8041 43.2827 41.2149 43.1562C41.0255 43.114 40.8466 43.093 40.6677 43.0613C40.6677 43.0297 40.6782 43.0086 40.6782 42.9875C40.6782 42.9348 40.6782 42.8927 40.6782 42.8399C40.6782 42.7661 40.6782 42.6923 40.6782 42.6185C40.552 41.0899 39.8786 40.0356 39.4577 39.5085C39.4156 39.3925 39.3525 39.2871 39.2788 39.1922C37.4585 36.9361 34.9753 36.2192 32.1765 37.168C31.1664 34.6483 29.1567 33.204 26.5262 33.0985C24.0219 32.9931 21.9491 34.2055 20.676 36.5565C20.5707 36.7463 20.455 36.9572 20.3708 37.1047C20.2025 37.0731 19.971 37.0204 19.7395 36.9677C17.2774 36.3984 15.1098 37.1047 13.4789 39.0024C11.8796 40.8685 11.4903 43.1246 12.3741 45.6127C12.3741 45.6127 12.3741 45.6337 12.3846 45.6443C12.3636 45.6548 12.332 45.6759 12.311 45.6865C9.61737 47.173 8.22847 50.1565 8.75457 53.2877C9.2491 56.2186 11.6586 58.559 14.6048 58.9807C14.9204 59.0229 14.9731 59.044 15.1309 59.3708C16.0673 61.3317 18.1086 62.133 19.9394 62.133C20.2972 62.133 20.6549 62.1013 20.9916 62.0381C21.6229 61.9221 22.0438 61.3212 21.9281 60.6992C21.8123 60.0666 21.2126 59.6449 20.5918 59.7609C19.3818 59.9717 17.8245 59.6344 17.2142 58.3692C16.7302 57.3572 16.0252 56.8406 14.931 56.6824C12.9739 56.3978 11.3745 54.8375 11.0378 52.8871C10.6696 50.7047 11.585 48.7227 13.4263 47.7106C14.8573 46.9199 15.0888 46.3296 14.5311 44.7692C13.9524 43.1351 14.1839 41.7435 15.2361 40.51C16.2988 39.266 17.6141 38.8443 19.2555 39.2344C21.2231 39.6877 21.7387 39.4558 22.7277 37.6319C23.5695 36.0716 24.7585 35.3547 26.4315 35.4179C28.1781 35.4917 29.3566 36.3562 30.0405 38.0641C30.5982 39.4558 31.5031 39.9196 32.7447 39.4347C34.5229 38.7389 36.038 39.0551 37.2481 40.373C37.3112 40.5416 37.4059 40.6998 37.5427 40.8263C37.5742 40.8579 38.2371 41.501 38.3739 42.724C38.3739 42.7872 38.3739 42.8505 38.3739 42.9137C36.0801 43.0613 34.0389 44.0945 32.3869 46.0133C30.5771 48.1113 29.8827 50.5782 30.2825 53.235C30.1773 53.3826 30.0931 53.5196 30.0195 53.6356L29.8511 53.8992C28.115 56.693 27.5152 56.6403 27.3679 56.5559C26.9681 56.3134 26.5262 55.5649 26.1684 54.9534C26.0106 54.6899 25.8633 54.4368 25.716 54.2049C25.5897 54.0046 25.4424 53.7305 25.2846 53.4353C24.6007 52.1702 23.822 50.7364 22.5384 50.4623C21.7492 50.2936 21.0021 50.5255 20.4866 51.0948C19.8763 51.7696 19.6659 52.8344 19.971 53.7937C20.234 54.6161 20.6339 55.3224 21.0337 55.9866C21.1495 56.1869 21.2652 56.3872 21.3704 56.577C22.6541 58.8964 23.8746 61.4372 24.2008 64.3258C24.264 64.9162 24.6848 65.2958 25.2425 65.5593C25.2635 66.0232 25.3056 66.4976 25.3793 66.9615C26.0737 71.1258 29.4829 74.4468 33.6601 75.0582C34.3545 75.1531 34.5755 75.3323 34.8911 75.9754C36.4379 79.2331 40.2153 80.182 43.0667 79.6759C43.698 79.5599 44.1189 78.959 44.0032 78.337C43.8874 77.7044 43.2982 77.2933 42.6669 77.3987C40.6572 77.7572 38.0056 77.1457 36.9745 74.9844C36.3327 73.6455 35.4383 72.9813 33.9863 72.7705C30.7981 72.3066 28.1886 69.7658 27.6625 66.5925C27.0733 63.0713 28.5674 59.8558 31.5557 58.2111C33.4391 57.1674 33.6811 56.5665 32.9867 54.595L32.9551 54.5001C32.0186 51.8644 32.4185 49.5134 34.1336 47.5314C35.8697 45.5178 38.0793 44.8114 40.7519 45.4334C43.456 46.066 43.9716 45.8341 45.3395 43.3249C46.7178 40.8052 48.7591 39.5928 51.4422 39.7088C54.2831 39.8353 56.2718 41.2902 57.3661 44.0523C57.6502 44.7692 58.4078 46.6669 60.67 45.7919C63.6372 44.6427 66.1519 45.2015 68.1511 47.4576C68.2037 47.6685 68.3195 47.8688 68.4878 48.0269C68.5404 48.0691 69.6978 49.1761 69.9083 51.2846C69.8978 51.4533 69.8978 51.6325 69.9083 51.8223C69.9504 52.6973 69.8031 53.5829 69.4664 54.4579C68.6772 56.5559 68.8876 57.1463 70.8237 58.2006C74.075 59.9717 75.6112 63.6827 74.559 67.2251C73.6015 70.4827 71.476 72.3172 68.0774 72.8654C68.0038 72.8759 67.9301 72.8865 67.8565 72.897C67.2883 72.9603 66.1204 73.0973 65.6784 74.4995C65.0471 76.5026 62.6481 77.7782 60.0807 77.4725C59.4494 77.3987 58.8707 77.852 58.7971 78.4846C58.7234 79.1172 59.1759 79.697 59.8072 79.7708C60.1649 79.813 60.5121 79.834 60.8594 79.834C64.1001 79.834 66.9411 78.0207 67.867 75.2375C67.9407 75.2269 68.0459 75.2164 68.1195 75.2058C68.2248 75.1953 68.33 75.1847 68.4352 75.1637C72.6861 74.4889 75.5691 71.9692 76.7686 67.8998C77.6314 64.99 77.1369 61.9854 75.6007 59.5922C75.6217 59.4762 75.6322 59.3603 75.6217 59.2548C75.5901 58.1057 75.7374 56.9882 76.0952 55.6598C76.253 55.0694 76.4635 54.479 76.7265 53.8359C77.3894 52.2651 78.2838 50.7469 79.1466 49.2815C79.3675 48.902 79.5885 48.533 79.7989 48.1534C80.2409 47.3944 80.2829 46.4139 79.9147 45.5494C79.578 44.7587 78.9466 44.1894 78.1785 44.0102C76.2951 43.5463 75.0219 45.5599 74.4853 46.4244L74.2854 46.7513C73.349 48.2483 72.5808 49.2499 71.9601 49.7665C71.5813 48.3116 70.8868 47.31 70.4449 46.7723C70.4028 46.6353 70.3291 46.4982 70.2345 46.3823C67.5619 43.0613 63.8687 42.102 59.8282 43.6623C59.7861 43.6834 59.744 43.6939 59.7125 43.7044C59.6388 43.5674 59.5546 43.3565 59.5126 43.23C58.5971 40.9106 57.1346 39.266 55.2301 38.3277C55.7141 37.7689 56.2823 37.284 56.9452 36.9255C58.5972 36.0189 58.8392 35.4074 58.2184 33.6784L58.1868 33.6046C57.4187 31.4539 57.7238 29.6195 59.1232 28.0065C60.5332 26.3723 62.2483 25.8136 64.4263 26.3196C66.7517 26.8573 67.2778 26.6254 68.4457 24.4641C69.5505 22.4399 71.192 21.47 73.3279 21.5544C75.6007 21.6492 77.2105 22.8195 78.0838 25.0334C78.3153 25.6133 79.0203 27.3844 81.0826 26.5832C83.4501 25.666 85.4597 26.0982 87.0591 27.8799C87.1222 28.0697 87.2274 28.2489 87.3747 28.3965C87.4168 28.4387 88.3217 29.3032 88.5006 30.9584C88.5006 31.106 88.5006 31.2536 88.5006 31.4117C88.5322 32.1181 88.4164 32.8244 88.1534 33.5308C87.4694 35.3441 87.7009 35.9661 89.3739 36.8834C91.9939 38.3066 93.2355 41.3007 92.3937 44.1472C91.6256 46.7723 89.9105 48.2589 87.1643 48.7017L86.9854 48.7227C86.5119 48.7754 85.4177 48.9125 85.0178 50.1882C84.5233 51.759 82.6083 52.7711 80.5776 52.5286C79.9462 52.4548 79.3675 52.9082 79.2939 53.5407C79.2202 54.1733 79.6727 54.7531 80.304 54.8269C80.5986 54.8585 80.9037 54.8796 81.1878 54.8796C83.9341 54.8796 86.3436 53.3615 87.1643 51.0316C87.1959 51.0316 87.2274 51.0316 87.259 51.0316C87.3432 51.021 87.4379 51.0105 87.522 50.9999C91.1311 50.4201 93.5827 48.2799 94.6033 44.8114C95.7502 40.9001 94.0562 36.8096 90.4682 34.8592L90.4787 34.7959Z" fill="white"/>
    <path d="M48.2851 85.3899H55.0612V85.4004C55.3769 85.4004 55.6715 85.2739 55.8925 85.0525C56.1134 84.8311 56.2292 84.5254 56.2187 84.2091C56.1871 82.8807 56.3554 81.6051 56.7658 80.0659C56.9447 79.3911 57.1867 78.6953 57.5023 77.9573C58.2704 76.144 59.2911 74.415 60.2801 72.7282C60.5327 72.3065 60.7747 71.8848 61.0272 71.4631C61.5007 70.6407 61.5533 69.5759 61.1429 68.6376C60.7747 67.7837 60.1013 67.1722 59.2805 66.9719C57.2498 66.4764 55.8399 68.7009 55.2401 69.6497C54.3352 71.073 52.5675 72.5595 50.5789 72.0535C49.1689 71.695 47.9484 69.7657 46.9593 68.2159C46.0123 66.7189 45.3179 65.633 44.2657 65.4011C43.3292 65.2007 42.4454 65.4749 41.8246 66.1496C41.067 66.9719 40.825 68.2792 41.2038 69.4811C41.551 70.588 42.1087 71.5474 42.6453 72.4646C42.8137 72.7493 42.9715 73.0234 43.1293 73.308C44.9496 76.6079 46.6963 80.224 47.1487 84.3462C47.2118 84.9366 47.7064 85.3794 48.2956 85.3794L48.2851 85.3899Z" fill="white"/>
    <path d="M57.231 3.54777C60.1245 3.80079 62.997 4.33847 65.7854 5.11862C65.9642 5.17134 66.1326 5.19242 66.3115 5.19242C67.1532 5.19242 67.9319 4.63366 68.1633 3.77971C68.4474 2.75707 67.8582 1.68172 66.827 1.39707C63.8178 0.543119 60.7033 -0.0261837 57.5782 -0.300292C56.5155 -0.395176 55.5791 0.384979 55.4844 1.44979C55.3897 2.51459 56.1683 3.45289 57.231 3.54777Z" fill="white"/>
    <path d="M23.3476 13.3419C23.758 13.3419 24.1683 13.2153 24.5156 12.9518C26.8304 11.1912 29.3136 9.64139 31.8915 8.34465C32.8385 7.87023 33.2278 6.71054 32.7543 5.75116C32.2808 4.80232 31.1234 4.41224 30.1659 4.88666C27.367 6.28883 24.6839 7.96511 22.1797 9.87333C21.3274 10.5164 21.1696 11.7288 21.8114 12.5828C22.1902 13.0783 22.7689 13.3419 23.3476 13.3419Z" fill="white"/>
    <path d="M39.4584 5.25539C39.6372 5.25539 39.8161 5.23431 39.995 5.1816C42.7728 4.38035 45.6453 3.84268 48.5388 3.56857C49.6015 3.47369 50.3802 2.52485 50.275 1.47059C50.1697 0.405781 49.2333 -0.363832 48.1811 -0.268948C45.0561 0.0262457 41.9415 0.616633 38.9323 1.47059C37.9116 1.76578 37.3224 2.83059 37.6065 3.86377C37.8485 4.70718 38.6166 5.26594 39.4584 5.26594V5.25539Z" fill="white"/>
    <path d="M99.3173 41.7648C99.4961 42.6926 100.296 43.3357 101.211 43.3357C101.327 43.3357 101.453 43.3251 101.569 43.3041C102.611 43.1037 103.305 42.0917 103.105 41.0479C102.526 37.9589 101.653 34.9121 100.506 31.9813C100.117 30.9903 99.0016 30.4948 98.0125 30.8848C97.0235 31.2749 96.529 32.3924 96.9183 33.3834C97.9705 36.0929 98.7807 38.9078 99.3173 41.7543V41.7648Z" fill="white"/>
    <path d="M10.2061 26.4251C10.5217 26.6255 10.869 26.7098 11.2162 26.7098C11.858 26.7098 12.4893 26.383 12.8576 25.7926C14.3833 23.3256 16.1405 20.9851 18.087 18.8345C18.8025 18.0438 18.7394 16.8208 17.9608 16.1039C17.1716 15.387 15.9511 15.4503 15.2356 16.2304C13.1312 18.5603 11.2162 21.0906 9.57476 23.7579C9.01709 24.6645 9.30119 25.8558 10.2061 26.4146V26.4251Z" fill="white"/>
    <path d="M93.014 25.6135C93.3823 26.2039 94.0031 26.5202 94.645 26.5202C94.9922 26.5202 95.3499 26.4253 95.6656 26.225C96.5705 25.6557 96.844 24.4643 96.2759 23.5682C94.6134 20.9115 92.6984 18.3812 90.5835 16.0724C89.868 15.2817 88.6474 15.229 87.8583 15.9564C87.0691 16.6733 87.0165 17.8963 87.7425 18.687C89.6996 20.8271 91.4778 23.1571 93.0035 25.624L93.014 25.6135Z" fill="white"/>
    <path d="M73.9053 8.23892C76.4937 9.52512 78.9874 11.0643 81.3127 12.8144C81.66 13.078 82.0703 13.2045 82.4702 13.2045C83.0594 13.2045 83.6381 12.9409 84.0169 12.4349C84.6587 11.5809 84.4904 10.3685 83.6381 9.72543C81.1339 7.8383 78.4297 6.17257 75.6309 4.78094C74.6734 4.30652 73.5265 4.6966 73.053 5.65598C72.5795 6.61536 72.9688 7.7645 73.9263 8.23892H73.9053Z" fill="white"/>
    <path d="M4.38917 43.5359C4.50491 43.557 4.62065 43.5675 4.73639 43.5675C5.6518 43.5675 6.46199 42.9139 6.63035 41.9862C7.15645 39.1291 7.94559 36.3142 8.98727 33.6048C9.36606 32.6137 8.87153 31.4962 7.88246 31.1062C6.88287 30.7266 5.77807 31.2221 5.38875 32.2131C4.2629 35.144 3.4001 38.1908 2.83191 41.2903C2.64252 42.3446 3.33697 43.3462 4.37864 43.5359H4.38917Z" fill="white"/>
    <path d="M9.04922 67.7205C8.65991 66.7295 7.54458 66.234 6.55552 66.6241C5.56645 67.0142 5.07192 68.1317 5.46123 69.1227C6.5976 72.043 8.01807 74.879 9.67002 77.5463C10.0383 78.1366 10.6696 78.4529 11.3114 78.4529C11.6587 78.4529 12.0164 78.358 12.3321 78.1577C13.237 77.599 13.5105 76.4077 12.9529 75.501C11.4167 73.034 10.1119 70.4089 9.05975 67.71L9.04922 67.7205Z" fill="white"/>
    <path d="M87.8475 82.4065C85.8904 84.5572 83.7334 86.5287 81.4186 88.2787C80.5663 88.9218 80.3979 90.1342 81.0503 90.9882C81.4291 91.4942 82.0078 91.7578 82.5865 91.7578C82.9863 91.7578 83.3967 91.6313 83.7439 91.3677C86.2376 89.47 88.584 87.3299 90.6884 85.0105C91.4039 84.2198 91.3513 82.9969 90.5622 82.28C89.773 81.5631 88.5525 81.6158 87.837 82.4065H87.8475Z" fill="white"/>
    <path d="M74.034 92.8752C71.4351 94.1719 68.7099 95.2367 65.9321 96.0274C64.9114 96.3226 64.3117 97.3874 64.6063 98.4101C64.8483 99.2535 65.6164 99.8122 66.4582 99.8122C66.637 99.8122 66.8054 99.7911 66.9843 99.7384C69.9936 98.8845 72.9502 97.7353 75.7596 96.3226C76.7171 95.8482 77.0959 94.6885 76.6224 93.7291C76.1489 92.7697 74.9915 92.3902 74.034 92.8646V92.8752Z" fill="white"/>
    <path d="M57.3893 97.6302C54.5168 97.8937 51.5601 97.8937 48.6876 97.6302C47.6459 97.5353 46.6884 98.3154 46.5937 99.3802C46.499 100.445 47.2777 101.383 48.3404 101.478C49.8766 101.615 51.4444 101.689 53.0016 101.689C54.5589 101.689 56.1793 101.615 57.747 101.468C58.8097 101.373 59.5884 100.435 59.4937 99.3697C59.399 98.3049 58.452 97.5247 57.3998 97.6196L57.3893 97.6302Z" fill="white"/>
    <path d="M99.4657 66.5502C98.4767 66.1602 97.3613 66.6557 96.972 67.6572C95.9304 70.3561 94.6256 72.9812 93.0894 75.4588C92.5318 76.3654 92.8053 77.5567 93.7102 78.1155C94.0259 78.3158 94.3731 78.4002 94.7203 78.4002C95.3622 78.4002 95.9935 78.0733 96.3618 77.4829C98.0137 74.8051 99.4342 71.9691 100.56 69.0488C100.949 68.0578 100.455 66.9403 99.4552 66.5502H99.4657Z" fill="white"/>
    <path d="M6.66123 59.3495C6.12461 56.503 5.86156 53.5933 5.85104 50.673C5.85104 49.6082 4.98824 48.7437 3.92552 48.7437C2.8628 48.7437 2 49.6082 2 50.673C2 53.8252 2.29462 56.9774 2.87332 60.0559C3.04168 60.9837 3.85187 61.6268 4.76728 61.6268C4.88302 61.6268 5.00928 61.6162 5.12503 61.5951C6.1667 61.3948 6.86115 60.3933 6.66123 59.339V59.3495Z" fill="white"/>
    <path d="M40.133 96.0484C37.3447 95.2577 34.6195 94.2034 32.0206 92.9067C31.0631 92.4323 29.9057 92.8223 29.4322 93.7712C28.9587 94.7306 29.348 95.8902 30.295 96.3647C33.1043 97.7668 36.061 98.9054 39.0703 99.7594C39.2492 99.8121 39.4175 99.8332 39.5964 99.8332C40.4381 99.8332 41.2063 99.2744 41.4483 98.431C41.7429 97.4084 41.1431 96.333 40.1225 96.0484H40.133Z" fill="white"/>
    <path d="M102.063 48.5015C101 48.5015 100.137 49.366 100.137 50.4308V50.5889C100.137 53.5092 99.874 56.4295 99.3479 59.2655C99.1585 60.3092 99.8424 61.3213 100.895 61.5216C101.01 61.5427 101.137 61.5532 101.252 61.5532C102.168 61.5532 102.967 60.8996 103.146 59.9719C103.715 56.8934 104.009 53.7412 104.009 50.5889V50.4308C104.009 49.366 103.146 48.5015 102.084 48.5015H102.063Z" fill="white"/>
    <path d="M24.6311 88.3209C22.3163 86.5708 20.1488 84.5994 18.2022 82.4592C17.4867 81.6685 16.2662 81.6158 15.477 82.3327C14.6879 83.0496 14.6353 84.2726 15.3508 85.0632C17.4657 87.3826 19.8016 89.5122 22.3058 91.4099C22.653 91.6735 23.0634 91.8 23.4632 91.8C24.0524 91.8 24.6206 91.5364 24.9994 91.0304C25.6412 90.1764 25.4729 88.964 24.6206 88.3315L24.6311 88.3209Z" fill="white"/>
  </g>
  <defs>
    <clipPath id="clip0_2313_1565">
      <rect width="180" height="102" fill="white"/>
    </clipPath>
  </defs>
</svg>